<?xml version="1.0" encoding="UTF-8"?>
<svg id="svg4" version="1.1" viewBox="0 0 64 64" xmlns="http://www.w3.org/2000/svg">
 <defs id="defs3051">
  <style id="current-color-scheme" type="text/css">.ColorScheme-Text {
        color:#232629;
      }
      .ColorScheme-Accent {
        color:#3daee9;
      }</style>
 </defs>
 <path id="path1" class="ColorScheme-Accent" d="m4 6v14h-1v32l10.97 6h47.03v-38l-1-0.60944v-3.3906l-10.5-6-17.521 0.01-3.9579-4.02z" fill="#f60"/>
 <path id="path2" d="m4 6v14h18l4-4h28l6 3.3906v-3.3906l-10.5-6h-17.5l-4-4z" fill-opacity=".33"/>
 <path id="path6" d="m60 21v36h1v-37l-7-4zm-32-15 3 5h18l11 5-10.5-6h-17.5zm-2 10-4 4h-19v1h20z" fill="#fff" fill-opacity=".2"/>
 <path id="path4" class="ColorScheme-Text" d="m26 16-6 3h-16v1h18zm-23 34v2l11 6h47v-1h-47 2l-2-1z" fill-opacity=".2" fill-rule="evenodd"/>
</svg>
