<?xml version="1.0" encoding="UTF-8" standalone="no"?>
<svg
   viewBox="0 0 64 64"
   version="1.1"
   id="svg4"
   sodipodi:docname="folder.svg"
   inkscape:version="1.4.3 (0d15f75042, 2025-12-25)"
   xmlns:inkscape="http://www.inkscape.org/namespaces/inkscape"
   xmlns:sodipodi="http://sodipodi.sourceforge.net/DTD/sodipodi-0.dtd"
   xmlns="http://www.w3.org/2000/svg"
   xmlns:svg="http://www.w3.org/2000/svg">
  <sodipodi:namedview
     id="namedview4"
     pagecolor="#ffffff"
     bordercolor="#000000"
     borderopacity="0.25"
     inkscape:showpageshadow="2"
     inkscape:pageopacity="0.0"
     inkscape:pagecheckerboard="true"
     inkscape:deskcolor="#d1d1d1"
     showgrid="true"
     inkscape:zoom="9.579087"
     inkscape:cx="39.617554"
     inkscape:cy="43.427938"
     inkscape:window-width="1918"
     inkscape:window-height="1037"
     inkscape:window-x="0"
     inkscape:window-y="0"
     inkscape:window-maximized="1"
     inkscape:current-layer="svg4"
     showguides="false">
    <inkscape:grid
       id="grid6"
       units="px"
       originx="0"
       originy="0"
       spacingx="1"
       spacingy="1"
       empcolor="#0099e5"
       empopacity="0.30196078"
       color="#0099e5"
       opacity="0.14902"
       empspacing="5"
       enabled="true"
       visible="true" />
  </sodipodi:namedview>
  <defs
     id="defs3051">
    <style
       type="text/css"
       id="current-color-scheme">
      .ColorScheme-Text {
        color:#232629;
      }
      .ColorScheme-Accent {
        color:#3daee9;
      }
      </style>
  </defs>
  <path
     style="fill:#ff7300;fill-opacity:1"
     d="M 9,6 4,8 V 20 H 3 v 1 0 0 36 1 h 1 56 1 V 57 20 l -1,-1 v -3 -5 0 0 L 56,10 H 32 L 28,6 Z"
     class="ColorScheme-Accent"
     id="path1"
     sodipodi:nodetypes="ccccccccccccccccccccccc" />
  <path
     style="fill-opacity:0.33"
     d="M 9,6 4,8 v 12 h 18 l 4,-4 h 31 l 3,3 V 16 11 L 56,10 H 32 L 28,6 Z"
     id="path2"
     sodipodi:nodetypes="ccccccccccccc" />
  <path
     style="fill:#ffffff;fill-opacity:0.2"
     d="m 28,6 3,5 h 2 27 L 56,10 H 33 32 Z m -2,10 -4,4 H 3 v 1 h 20 z"
     id="path3"
     sodipodi:nodetypes="cccccccccccccc" />
  <path
     style="fill-opacity:0.2;fill-rule:evenodd"
     d="M 26 16 L 20 19 L 4 19 L 4 20 L 22 20 L 26 16 z M 3 57 L 3 58 L 4 58 L 60 58 L 61 58 L 61 57 L 60 57 L 4 57 L 3 57 z "
     class="ColorScheme-Text"
     id="path4" />
  <path
     style="fill:#ffffff;fill-opacity:0.2"
     d="m 60,21 v 36 h 1 V 20 l -4,-4 z"
     id="path6"
     sodipodi:nodetypes="cccccc" />
</svg>
