<?xml version="1.0" encoding="UTF-8"?>
<svg id="svg4" version="1.1" viewBox="0 0 32 32" xmlns="http://www.w3.org/2000/svg">
 <defs id="defs3051">
  <style id="current-color-scheme" type="text/css">.ColorScheme-Text {
        color:#31363b;
      }
      .ColorScheme-Accent {
        color:#3daee9;
      }</style>
 </defs>
 <path id="path1" class="ColorScheme-Accent" d="m2 3v7h-1v15.956l5.0483 3.0444h24.952v-19l-1-0.55598v-1.444l-5-3h-9l-2-2z" fill="#f60"/>
 <path id="path2" d="m2 3v7h9l2-2h14.5l3.5 2-1-0.55598v-1.444l-5-3h-9l-2-2z" fill-opacity=".33" fill-rule="evenodd"/>
 <path id="path3" d="m14 3 1 3h10l5 2-5-3h-9zm-1 5-2 2h-10v1h11zm14.5 0 2.5 2.5v17.5h1v-18z" fill="#fff" fill-opacity=".2" fill-rule="evenodd"/>
 <path id="path4" class="ColorScheme-Text" d="m13 8-2 1h-9v1h9zm-12 15.908v2.0477l5.0483 3.0444h24.952v-1l-23.327 0.0037z" fill-opacity=".2" fill-rule="evenodd"/>
</svg>
