<?xml version="1.0" encoding="UTF-8" standalone="no"?>
<svg
   viewBox="0 0 32 32"
   version="1.1"
   id="svg4"
   sodipodi:docname="folder.svg"
   inkscape:version="1.4.3 (0d15f75042, 2025-12-25)"
   xmlns:inkscape="http://www.inkscape.org/namespaces/inkscape"
   xmlns:sodipodi="http://sodipodi.sourceforge.net/DTD/sodipodi-0.dtd"
   xmlns="http://www.w3.org/2000/svg"
   xmlns:svg="http://www.w3.org/2000/svg">
  <sodipodi:namedview
     id="namedview4"
     pagecolor="#505050"
     bordercolor="#ffffff"
     borderopacity="1"
     inkscape:showpageshadow="0"
     inkscape:pageopacity="0"
     inkscape:pagecheckerboard="1"
     inkscape:deskcolor="#505050"
     showgrid="true"
     inkscape:zoom="18.230097"
     inkscape:cx="13.165043"
     inkscape:cy="23.422805"
     inkscape:window-width="1918"
     inkscape:window-height="1042"
     inkscape:window-x="0"
     inkscape:window-y="0"
     inkscape:window-maximized="1"
     inkscape:current-layer="svg4">
    <inkscape:grid
       id="grid4"
       units="px"
       originx="0"
       originy="0"
       spacingx="1"
       spacingy="1"
       empcolor="#0099e5"
       empopacity="0.30196078"
       color="#0099e5"
       opacity="0.14902"
       empspacing="5"
       enabled="true"
       visible="true" />
  </sodipodi:namedview>
  <defs
     id="defs3051">
    <style
       type="text/css"
       id="current-color-scheme">
      .ColorScheme-Text {
        color:#31363b;
      }
      .ColorScheme-Accent {
        color:#3daee9;
      }
      </style>
  </defs>
  <path
     style="fill:#ff7f2a;fill-opacity:1;stroke:none"
     d="m 2,3 v 7 H 1 V 25.955584 L 6.0483037,29 H 13 31 V 10 L 30,9.4440193 V 8 L 25,5 H 16 L 14,3 Z"
     class="ColorScheme-Accent"
     id="path1"
     sodipodi:nodetypes="cccccccccccccc" />
  <path
     style="fill-opacity:0.33;fill-rule:evenodd"
     d="m 2,3 v 7 h 9 L 13,8 H 27.5 L 31,10 30,9.4440193 V 8 8 L 25,5 H 16 L 14,3 Z"
     id="path2"
     sodipodi:nodetypes="ccccccccccccc" />
  <path
     style="fill:#ffffff;fill-opacity:0.2;fill-rule:evenodd"
     d="m 14,3 1,3 h 10 l 5,2 -5,-3 h -9 z m -1,5 -2,2 H 1 v 1 H 12 Z M 27.5,8 30,10.5 V 28 h 1 V 10 Z"
     id="path3"
     sodipodi:nodetypes="ccccccccccccccccccc" />
  <path
     style="fill-opacity:0.2;fill-rule:evenodd"
     d="M 13,8 11,9 H 2 v 1 h 9 z M 1,23.907879 v 2.047705 L 6.0483037,29 H 31 v -1 l -23.3270945,0.0037 z"
     class="ColorScheme-Text"
     id="path4"
     sodipodi:nodetypes="ccccccccccccc" />
</svg>
