<?xml version="1.0" encoding="UTF-8"?>
<svg id="svg4" version="1.1" viewBox="0 0 48 48" xmlns="http://www.w3.org/2000/svg">
 <defs id="defs3051">
  <style id="current-color-scheme" type="text/css">.ColorScheme-Text {
        color:#31363b;
      }
      .ColorScheme-Accent {
        color:#3daee9;
      }</style>
 </defs>
 <path id="path1" class="ColorScheme-Accent" d="m5 6v10h-1v22l7 4h33v-26l-1-0.59638v-2.4036l-7-4h-12l-3-3z" fill="#f60"/>
 <path id="path2" d="m5 6v10h12l3-3h19l4 2.4036v-2.4036l-7-4h-12l-3-3z" fill-opacity=".33" fill-rule="evenodd"/>
 <path id="path3" d="m21 6 2 4h13l7 3-7-4h-12zm-1 7-3 3h-13v1h14zm19 0 4 4-0.0012 23.999 1.0012 8.82e-4v-25z" fill="#fff" fill-opacity=".2" fill-rule="evenodd"/>
 <path id="path4" class="ColorScheme-Text" d="m20 13-4 2h-11v1h12zm-16 23v2l7 4h33v-1l-31.298-0.02756z" fill-opacity=".2" fill-rule="evenodd"/>
</svg>
