<?xml version="1.0" encoding="UTF-8"?>
<svg id="svg4" version="1.1" viewBox="0 0 96 96" xmlns="http://www.w3.org/2000/svg">
 <defs id="defs3051">
  <style id="current-color-scheme" type="text/css">.ColorScheme-Text {
        color:#232629;
      }
      .ColorScheme-Accent {
        color:#3daee9;
      }</style>
 </defs>
 <path id="path1" class="ColorScheme-Accent" d="m6 9v21h-1v48l15.5 9h70.5v-56.978l-10-6.0216 9 5.4224v-5.4224l-15.5-9h-26.5l-6-6z" fill="#f60"/>
 <path id="path2" d="m6 9v21h27l6-6h42l9 5.4224v-5.4224l-15.5-9h-26.5l-6-6z" fill-opacity=".33"/>
 <path id="path3" d="m42 9 5 7h27l16 8-15.5-9h-26.5zm-3 15-6 6h-28v1h29zm42 0 9 7-0.02295 55h1.023v-55.978z" fill="#fff" fill-opacity=".2"/>
 <path id="path4" class="ColorScheme-Text" d="m39 24-7 5h-26v1h27zm-34 51.969v2.0315l15.5 9h70.5v-1l-68.811-0.01902z" fill-opacity=".2" fill-rule="evenodd"/>
</svg>
